<svg xmlns="http://www.w3.org/2000/svg" width="23" height="22" fill="none" viewBox="0 0 23 22">
  <path d="M17.2 20.563v.875H4v-.875zm3.24-1.005a2.94 2.94 0 0 1-2.24 1.836v-.895c.295-.074.572-.21.809-.404s.425-.44.555-.713zM1.5 19A2.06 2.06 0 0 0 3 20.498v.894a2.93 2.93 0 0 1-1.577-.815A2.93 2.93 0 0 1 .608 19zm20.481-6.934-1.303 6.519-.858-.173 1.304-6.517zM1.438 9.937V18H.563V9.938zM19.7 8.105a2.94 2.94 0 0 1 2.437 2.971l-.877-.176a2.06 2.06 0 0 0-1.56-1.902zm-1-.043v.876h-2.565l.033-.202.112-.674zm-13.288 0v.876H2.438v-.876zm2.63-.042a2.93 2.93 0 0 1-1.63.873v-.894a2.06 2.06 0 0 0 .887-.475zm7.225.043-.003.015-.014-.003v-.012zm-4.044-4.735-2.59 3.884-.728-.484 2.59-3.884zm4.883-.307-.672 4.042h-.888l.697-4.187zm-2.348-1.545a3.3 3.3 0 0 0-1.948 1.042l-.735-.49A4.2 4.2 0 0 1 13.758.591zM15.024.64q.108.032.21.079a1.69 1.69 0 0 1 .917 1.083q.029.109.043.22l-.957-.16-.039-.066-.053-.07-.061-.065-.06-.052z"/>
  <path stroke-width="1.5" d="M6 8.5V21"/>
</svg>
