<svg xmlns="http://www.w3.org/2000/svg" width="26" height="26" fill="none" viewBox="0 0 26 26">
  <path d="M13 8.179a4.822 4.822 0 1 0 0 9.643 4.822 4.822 0 0 0 0-9.643M9.786 13a3.215 3.215 0 1 1 6.429 0 3.215 3.215 0 0 1-6.43 0m11.475 8.995-1.852-.814a1.84 1.84 0 0 0-1.652.092c-.5.29-.82.8-.883 1.376l-.223 2.014a.985.985 0 0 1-.753.853 12.5 12.5 0 0 1-5.798 0 .99.99 0 0 1-.752-.852l-.223-2.012A1.82 1.82 0 0 0 7.42 21.04a1.8 1.8 0 0 0-.828.148L4.74 22a.985.985 0 0 1-1.117-.23 13 13 0 0 1-2.9-5.006.99.99 0 0 1 .357-1.089l1.636-1.208a1.82 1.82 0 0 0 0-2.936L1.08 10.327a.99.99 0 0 1-.357-1.09 12.9 12.9 0 0 1 2.902-5 .99.99 0 0 1 1.117-.23l1.843.812a1.83 1.83 0 0 0 2.54-1.475l.226-2.012a.99.99 0 0 1 .766-.856Q11.53.161 13.014.143c.966.01 1.929.123 2.871.333a.99.99 0 0 1 .766.857l.224 2.012a1.82 1.82 0 0 0 1.809 1.627c.25 0 .497-.053.729-.155l1.842-.81a.985.985 0 0 1 1.118.229 12.9 12.9 0 0 1 2.901 5 .99.99 0 0 1-.357 1.089l-1.633 1.207A1.83 1.83 0 0 0 22.536 13c0 .579.281 1.124.749 1.468l1.635 1.206c.338.251.482.688.357 1.09a13 13 0 0 1-2.9 5 .985.985 0 0 1-1.116.23m-5.837-.213a3.39 3.39 0 0 1 3.057-2.355 3.45 3.45 0 0 1 1.572.283l1.44.633a11.4 11.4 0 0 0 2.11-3.641l-1.273-.94A3.43 3.43 0 0 1 20.928 13c0-1.1.532-2.122 1.4-2.76l.002-.001 1.272-.94a11.4 11.4 0 0 0-2.112-3.64l-1.428.628-.002.001a3.4 3.4 0 0 1-1.378.292 3.43 3.43 0 0 1-3.405-3.056v-.002l-.175-1.564a12.3 12.3 0 0 0-2.09-.207q-1.08.015-2.115.207l-.175 1.565A3.436 3.436 0 0 1 5.94 6.29l-1.431-.63A11.4 11.4 0 0 0 2.396 9.3l1.275.939a3.428 3.428 0 0 1 0 5.523l-1.275.94a11.4 11.4 0 0 0 2.11 3.647l1.442-.632a3.43 3.43 0 0 1 4.237 1.262c.293.448.478.96.538 1.492v.006l.174 1.568c1.39.273 2.818.273 4.207 0l.174-1.572q.039-.355.148-.69"/>
</svg>
